<svg xmlns="http://www.w3.org/2000/svg" xmlns:xlink="http://www.w3.org/1999/xlink" viewBox="0 0 112 87.5"><defs><style>.cls-1{fill:#fff;}.cls-2{mask:url(#mask);}.cls-3{filter:url(#luminosity-invert-noclip);}</style><filter id="luminosity-invert-noclip" x="-3" y="0" width="115" height="87.5" filterUnits="userSpaceOnUse" color-interpolation-filters="sRGB"><feColorMatrix values="-1 0 0 0 1 0 -1 0 0 1 0 0 -1 0 1 0 0 0 1 0" result="invert"/><feFlood flood-color="#fff" result="bg"/><feBlend in="invert" in2="bg"/></filter><mask id="mask" x="-3" y="0" width="115" height="87.5" maskUnits="userSpaceOnUse"><g class="cls-3"><path class="cls-1" d="M33.42,5.25a7.28,7.28,0,0,1,7.25,7.25v4.84a7.28,7.28,0,0,1-7.25,7.25H25.56c-4,0-4.23-.25-4.23-4.23V12.5a7.28,7.28,0,0,1,7.25-7.25h4.84m0-3H28.58A10.26,10.26,0,0,0,18.33,12.5v7.86c0,5.67,1.56,7.23,7.23,7.23h7.86A10.26,10.26,0,0,0,43.67,17.34V12.5A10.26,10.26,0,0,0,33.42,2.25Z"/><path class="cls-1" d="M18.71,38.92A4.13,4.13,0,0,1,22.83,43v2.75a4.14,4.14,0,0,1-4.12,4.13H14.24c-2.27,0-2.41-.14-2.41-2.41V43A4.14,4.14,0,0,1,16,38.92h2.75m0-3H16A7.14,7.14,0,0,0,8.83,43v4.47c0,3.94,1.47,5.41,5.41,5.41h4.47a7.13,7.13,0,0,0,7.12-7.13V43a7.13,7.13,0,0,0-7.12-7.12Z"/><path class="cls-1" d="M26.82,63.92A6.24,6.24,0,0,1,33,70.14v4.14a6.24,6.24,0,0,1-6.22,6.22H20.08c-3.42,0-3.62-.2-3.62-3.62V70.14a6.23,6.23,0,0,1,6.21-6.22h4.15m0-3H22.67a9.23,9.23,0,0,0-9.21,9.22v6.74c0,5.07,1.54,6.62,6.62,6.62h6.74A9.23,9.23,0,0,0,36,74.28V70.14a9.24,9.24,0,0,0-9.22-9.22Z"/><path class="cls-1" d="M12.4,14.92a1.94,1.94,0,0,1,1.93,1.94v1.29a2,2,0,0,1-1.93,1.94H10.3C9.23,20.09,9.17,20,9.17,19v-2.1a1.94,1.94,0,0,1,1.93-1.94h1.3m0-3H11.1a4.94,4.94,0,0,0-4.93,4.94V19c0,2.74,1.39,4.13,4.13,4.13h2.1a4.94,4.94,0,0,0,4.93-4.94V16.86a4.94,4.94,0,0,0-4.93-4.94Z"/><path class="cls-1" d="M6.88,23.59A4.13,4.13,0,0,1,11,27.71v2.75a4.14,4.14,0,0,1-4.12,4.13H2.41C.14,34.59,0,34.45,0,32.18V27.71a4.13,4.13,0,0,1,4.12-4.12H6.88m0-3H4.12A7.13,7.13,0,0,0-3,27.71v4.47c0,3.94,1.47,5.41,5.41,5.41H6.88A7.14,7.14,0,0,0,14,30.46V27.71a7.13,7.13,0,0,0-7.12-7.12Z"/><path class="cls-1" d="M35.68,42.09a6.2,6.2,0,0,1,6.19,6.18V52.4a6.21,6.21,0,0,1-6.19,6.19H29c-3.4,0-3.61-.21-3.61-3.61V48.27a6.21,6.21,0,0,1,6.19-6.18h4.12m0-3H31.56a9.19,9.19,0,0,0-9.19,9.18V55c0,5.06,1.55,6.61,6.61,6.61h6.7a9.2,9.2,0,0,0,9.19-9.19V48.27a9.19,9.19,0,0,0-9.19-9.18Z"/><path class="cls-1" d="M31.9,28.75a2.7,2.7,0,0,1,2.68,2.69v1.79a2.7,2.7,0,0,1-2.68,2.69H29c-1.47,0-1.56-.09-1.56-1.57V31.44a2.7,2.7,0,0,1,2.68-2.69h1.8m0-3H30.1a5.69,5.69,0,0,0-5.68,5.69v2.91c0,3.12,1.45,4.57,4.56,4.57H31.9a5.69,5.69,0,0,0,5.68-5.69V31.44a5.69,5.69,0,0,0-5.68-5.69Z"/><path class="cls-1" d="M20,28.59a1.31,1.31,0,0,1,1.31,1.31v.87A1.32,1.32,0,0,1,20,32.09H18.6c-.72,0-.77-.05-.77-.77V29.9a1.32,1.32,0,0,1,1.32-1.31H20m0-3h-.87a4.32,4.32,0,0,0-4.32,4.31v1.42a3.44,3.44,0,0,0,3.77,3.77H20a4.32,4.32,0,0,0,4.31-4.32V29.9A4.31,4.31,0,0,0,20,25.59Z"/><path class="cls-1" d="M9.24,54.92a2.34,2.34,0,0,1,2.34,2.34v1.57a2.34,2.34,0,0,1-2.34,2.34H6.7c-1.29,0-1.37-.08-1.37-1.37V57.26a2.35,2.35,0,0,1,2.35-2.34H9.24m0-3H7.68a5.35,5.35,0,0,0-5.35,5.34V59.8c0,2.94,1.43,4.37,4.37,4.37H9.24a5.35,5.35,0,0,0,5.34-5.34V57.26a5.35,5.35,0,0,0-5.34-5.34Z"/><path class="cls-1" d="M12,66.59a1.31,1.31,0,0,1,1.31,1.31v.87A1.32,1.32,0,0,1,12,70.09H10.6c-.72,0-.77,0-.77-.77V67.9a1.32,1.32,0,0,1,1.32-1.31H12m0-3h-.87A4.32,4.32,0,0,0,6.83,67.9v1.42a3.44,3.44,0,0,0,3.77,3.77H12a4.32,4.32,0,0,0,4.31-4.32V67.9A4.31,4.31,0,0,0,12,63.59Z"/></g></mask></defs><g id="Livello_2" data-name="Livello 2"><g id="Livello_1-2" data-name="Livello 1"><g class="cls-2"><path class="cls-1" d="M112,43.16a46.46,46.46,0,0,1-11.72,31.63q-10.35,12-29.08,12.58-3.6.13-19.78.13-3,0-9.15-.19t-9.15-.18c-1.2,0-1.8-.48-1.8-1.43q0-6.83.53-20.49t.53-20.5q0-7.12-.53-21.36t-.53-21.3c0-.87.6-1.39,1.8-1.55Q37.53,0,47.57,0,66.66,0,72.31.56,87,2,95.32,8a37.7,37.7,0,0,1,12.34,15.63A46.49,46.49,0,0,1,112,43.16Zm-23.75,0Q88.25,32.68,82,26q-6.33-6.87-16.74-6.88-9.55,0-9.55,2.54c0,2.44-.05,6.11-.13,11s-.12,8.57-.12,11,0,6,.12,10.82.13,8.44.13,10.88q0,2.67,9.92,2.67,10.72,0,16.87-7.13Q88.25,54.2,88.25,43.16Z"/></g><path class="cls-1" d="M33.42,24.59H25.56c-4,0-4.23-.25-4.23-4.23V12.5a7.28,7.28,0,0,1,7.25-7.25h4.84a7.28,7.28,0,0,1,7.25,7.25v4.84A7.28,7.28,0,0,1,33.42,24.59Z"/><path class="cls-1" d="M18.71,49.92H14.24c-2.27,0-2.41-.14-2.41-2.41V43A4.14,4.14,0,0,1,16,38.92h2.75A4.13,4.13,0,0,1,22.83,43v2.75A4.14,4.14,0,0,1,18.71,49.92Z"/><path class="cls-1" d="M26.82,80.5H20.08c-3.42,0-3.62-.2-3.62-3.62V70.14a6.23,6.23,0,0,1,6.21-6.22h4.15A6.24,6.24,0,0,1,33,70.14v4.14A6.24,6.24,0,0,1,26.82,80.5Z"/><path class="cls-1" d="M12.4,20.09H10.3C9.23,20.09,9.17,20,9.17,19v-2.1a1.94,1.94,0,0,1,1.93-1.94h1.3a1.94,1.94,0,0,1,1.93,1.94v1.29A2,2,0,0,1,12.4,20.09Z"/><path class="cls-1" d="M6.88,34.59H2.41C.14,34.59,0,34.45,0,32.18V27.71a4.14,4.14,0,0,1,4.13-4.12H6.88A4.13,4.13,0,0,1,11,27.71v2.75A4.14,4.14,0,0,1,6.88,34.59Z"/><path class="cls-1" d="M35.68,58.59H29c-3.4,0-3.61-.21-3.61-3.61V48.27a6.21,6.21,0,0,1,6.19-6.18h4.12a6.2,6.2,0,0,1,6.19,6.18V52.4A6.21,6.21,0,0,1,35.68,58.59Z"/><path class="cls-1" d="M31.9,35.92H29c-1.47,0-1.56-.09-1.56-1.57V31.44a2.7,2.7,0,0,1,2.68-2.69h1.8a2.7,2.7,0,0,1,2.68,2.69v1.79A2.7,2.7,0,0,1,31.9,35.92Z"/><path class="cls-1" d="M20,32.09H18.6c-.72,0-.77-.05-.77-.77V29.9a1.32,1.32,0,0,1,1.32-1.31H20a1.31,1.31,0,0,1,1.31,1.31v.87A1.32,1.32,0,0,1,20,32.09Z"/><path class="cls-1" d="M9.24,61.17H6.7c-1.29,0-1.37-.08-1.37-1.37V57.26a2.35,2.35,0,0,1,2.35-2.34H9.24a2.34,2.34,0,0,1,2.34,2.34v1.57A2.34,2.34,0,0,1,9.24,61.17Z"/><path class="cls-1" d="M12,70.09H10.6c-.72,0-.77,0-.77-.77V67.9a1.32,1.32,0,0,1,1.32-1.31H12a1.31,1.31,0,0,1,1.31,1.31v.87A1.32,1.32,0,0,1,12,70.09Z"/></g></g></svg>