<svg xmlns="http://www.w3.org/2000/svg" xmlns:xlink="http://www.w3.org/1999/xlink" viewBox="0 0 443.43 88.5"><defs><style>.cls-1,.cls-2,.cls-4,.cls-6,.cls-7,.cls-8{fill:#fff;}.cls-1{filter:url(#luminosity-invert-noclip);}.cls-3{mask:url(#mask);}.cls-4,.cls-6,.cls-7,.cls-8{stroke:#fff;stroke-miterlimit:10;}.cls-5{mask:url(#mask-2);}.cls-6{stroke-width:0.75px;}.cls-7{stroke-width:0.5px;}.cls-8{font-size:18px;font-family:Candara-Light, Candara;font-weight:300;letter-spacing:-0.05em;}.cls-9{letter-spacing:-0.07em;}.cls-10{filter:url(#luminosity-invert-noclip-2);}</style><filter id="luminosity-invert-noclip" x="135.68" y="10.25" width="308.18" height="41.57" filterUnits="userSpaceOnUse" color-interpolation-filters="sRGB"><feColorMatrix values="-1 0 0 0 1 0 -1 0 0 1 0 0 -1 0 1 0 0 0 1 0" result="invert"/><feFlood flood-color="#fff" result="bg"/><feBlend in="invert" in2="bg"/></filter><mask id="mask" x="135.68" y="10.25" width="308.18" height="41.57" maskUnits="userSpaceOnUse"><rect class="cls-1" x="273.77" y="45.65" width="170.1" height="6.17"/></mask><filter id="luminosity-invert-noclip-2" x="-2" y="0" width="115.5" height="88.5" filterUnits="userSpaceOnUse" color-interpolation-filters="sRGB"><feColorMatrix values="-1 0 0 0 1 0 -1 0 0 1 0 0 -1 0 1 0 0 0 1 0" result="invert"/><feFlood flood-color="#fff" result="bg"/><feBlend in="invert" in2="bg"/></filter><mask id="mask-2" x="-2" y="0" width="115.5" height="88.5" maskUnits="userSpaceOnUse"><g class="cls-10"><path class="cls-2" d="M34.42,5.75A7.28,7.28,0,0,1,41.67,13v4.84a7.28,7.28,0,0,1-7.25,7.25H26.56c-4,0-4.23-.25-4.23-4.23V13a7.28,7.28,0,0,1,7.25-7.25h4.84m0-3H29.58A10.26,10.26,0,0,0,19.33,13v7.86c0,5.67,1.56,7.23,7.23,7.23h7.86A10.26,10.26,0,0,0,44.67,17.84V13A10.26,10.26,0,0,0,34.42,2.75Z"/><path class="cls-2" d="M19.71,39.42a4.13,4.13,0,0,1,4.12,4.12v2.75a4.14,4.14,0,0,1-4.12,4.13H15.24c-2.27,0-2.41-.14-2.41-2.41V43.54A4.14,4.14,0,0,1,17,39.42h2.75m0-3H17a7.14,7.14,0,0,0-7.13,7.12V48c0,3.94,1.47,5.41,5.41,5.41h4.47a7.13,7.13,0,0,0,7.12-7.13V43.54a7.13,7.13,0,0,0-7.12-7.12Z"/><path class="cls-2" d="M27.82,64.42A6.24,6.24,0,0,1,34,70.64v4.14A6.24,6.24,0,0,1,27.82,81H21.08c-3.42,0-3.62-.2-3.62-3.62V70.64a6.23,6.23,0,0,1,6.21-6.22h4.15m0-3H23.67a9.23,9.23,0,0,0-9.21,9.22v6.74C14.46,82.45,16,84,21.08,84h6.74A9.23,9.23,0,0,0,37,74.78V70.64a9.24,9.24,0,0,0-9.22-9.22Z"/><path class="cls-2" d="M13.4,15.42a1.94,1.94,0,0,1,1.93,1.94v1.29a2,2,0,0,1-1.93,1.94H11.3c-1.07,0-1.13-.07-1.13-1.13v-2.1a1.94,1.94,0,0,1,1.93-1.94h1.3m0-3H12.1a4.94,4.94,0,0,0-4.93,4.94v2.1c0,2.74,1.39,4.13,4.13,4.13h2.1a4.94,4.94,0,0,0,4.93-4.94V17.36a4.94,4.94,0,0,0-4.93-4.94Z"/><path class="cls-2" d="M7.88,24.09A4.13,4.13,0,0,1,12,28.21V31a4.14,4.14,0,0,1-4.12,4.13H3.41C1.14,35.09,1,35,1,32.68V28.21a4.14,4.14,0,0,1,4.13-4.12H7.88m0-3H5.13A7.13,7.13,0,0,0-2,28.21v4.47c0,3.94,1.47,5.41,5.41,5.41H7.88A7.14,7.14,0,0,0,15,31V28.21a7.13,7.13,0,0,0-7.12-7.12Z"/><path class="cls-2" d="M36.68,42.59a6.2,6.2,0,0,1,6.19,6.18V52.9a6.21,6.21,0,0,1-6.19,6.19H30c-3.4,0-3.61-.21-3.61-3.61V48.77a6.21,6.21,0,0,1,6.19-6.18h4.12m0-3H32.56a9.19,9.19,0,0,0-9.19,9.18v6.71c0,5.06,1.55,6.61,6.61,6.61h6.7a9.2,9.2,0,0,0,9.19-9.19V48.77a9.19,9.19,0,0,0-9.19-9.18Z"/><path class="cls-2" d="M32.9,29.25a2.7,2.7,0,0,1,2.68,2.69v1.79a2.7,2.7,0,0,1-2.68,2.69H30c-1.47,0-1.56-.09-1.56-1.57V31.94a2.7,2.7,0,0,1,2.68-2.69h1.8m0-3H31.1a5.69,5.69,0,0,0-5.68,5.69v2.91c0,3.12,1.45,4.57,4.56,4.57H32.9a5.69,5.69,0,0,0,5.68-5.69V31.94a5.69,5.69,0,0,0-5.68-5.69Z"/><path class="cls-2" d="M21,29.09a1.31,1.31,0,0,1,1.31,1.31v.87A1.32,1.32,0,0,1,21,32.59H19.6c-.72,0-.77-.05-.77-.77V30.4a1.32,1.32,0,0,1,1.32-1.31H21m0-3h-.87a4.32,4.32,0,0,0-4.32,4.31v1.42a3.44,3.44,0,0,0,3.77,3.77H21a4.32,4.32,0,0,0,4.31-4.32V30.4A4.31,4.31,0,0,0,21,26.09Z"/><path class="cls-2" d="M10.24,55.42a2.34,2.34,0,0,1,2.34,2.34v1.57a2.34,2.34,0,0,1-2.34,2.34H7.7c-1.29,0-1.37-.08-1.37-1.37V57.76a2.35,2.35,0,0,1,2.35-2.34h1.56m0-3H8.68a5.35,5.35,0,0,0-5.35,5.34V60.3c0,2.94,1.43,4.37,4.37,4.37h2.54a5.35,5.35,0,0,0,5.34-5.34V57.76a5.35,5.35,0,0,0-5.34-5.34Z"/><path class="cls-2" d="M13,67.09a1.31,1.31,0,0,1,1.31,1.31v.87A1.32,1.32,0,0,1,13,70.59H11.6c-.72,0-.77,0-.77-.77V68.4a1.32,1.32,0,0,1,1.32-1.31H13m0-3h-.87A4.32,4.32,0,0,0,7.83,68.4v1.42a3.44,3.44,0,0,0,3.77,3.77H13a4.32,4.32,0,0,0,4.31-4.32V68.4A4.31,4.31,0,0,0,13,64.09Z"/></g></mask></defs><g id="Livello_2" data-name="Livello 2"><g id="Livello_1-2" data-name="Livello 1"><g class="cls-3"><text/><path class="cls-4" d="M160.33,33.13a14.82,14.82,0,0,1-4.25,10.51q-4.26,4.52-11.73,4.51-2.44,0-8.13-.29.34-6.54.35-14.43,0-7.42-.35-13h2.58q.93,0,2.85-.06l2.54-.06q8.26,0,12.21,3.66A12,12,0,0,1,160.33,33.13Zm-4.07.95a10.33,10.33,0,0,0-3.32-7.82q-3.31-3.15-10.25-3.15a23.47,23.47,0,0,0-2.7.21q.19,4.92.19,10.11c0,3.8.08,7.65.26,11.56a20.84,20.84,0,0,0,3.61.34q6.18,0,9.19-3.31A11.35,11.35,0,0,0,156.26,34.08Z"/><path class="cls-4" d="M167.67,47.86h-4.45q.36-6.84.35-14.43t-.35-13h4.45q-.31,5.76-.32,13Q167.35,41.07,167.67,47.86Z"/><path class="cls-4" d="M194.91,47.29a27.15,27.15,0,0,1-7.76,1.14q-8.22,0-12.41-4a12.91,12.91,0,0,1-4.18-9.78,13.87,13.87,0,0,1,4.55-10.28Q179.65,20,187.72,20a24.39,24.39,0,0,1,5.5.61l-.58,3.51a30.34,30.34,0,0,0-6.24-.85q-5.67,0-8.68,3.09a10.55,10.55,0,0,0-3,7.67,11,11,0,0,0,3.46,8.06q3.45,3.45,9.76,3.46a28.06,28.06,0,0,0,3.44-.32,29.32,29.32,0,0,1-.4-5.1,34.21,34.21,0,0,0-.32-4.79h4.26c-.12,1.85-.19,3.82-.19,5.88C194.72,42.12,194.79,44.14,194.91,47.29Z"/><path class="cls-4" d="M203.05,47.86H198.6q.35-6.84.35-14.43t-.35-13h4.45q-.33,5.76-.33,13Q202.72,41.07,203.05,47.86Z"/><path class="cls-4" d="M227.54,20.39l-.11,3c-3.1-.14-6.29-.21-9.59-.21q0,4.05-.05,10.27,0,6.87.24,14.43h-4.29q.28-7.2.28-14.43c0-4.09-.05-7.52-.14-10.27q-3.47,0-9.75.25l.12-3Z"/><path class="cls-4" d="M252.58,47.86h-5q0-1.43-2.95-8.88H231.16q-2.91,7.35-2.91,8.88h-4.73q0-.78,6-13.49t6.05-14h5.44q0,1.24,5.76,13.78T252.58,47.86Zm-9-11.65q-5.5-12.37-5.51-13.16h-.25q0,.66-5.7,13.16Z"/><path class="cls-4" d="M272,44.76l-.14,3.1H253.4q.28-5.22.28-14.43,0-7.93-.28-13h4.36q-.27,4.26-.28,13c0,4.81-.08,8.66-.26,11.56Q264.26,45,272,44.76Z"/><path class="cls-4" d="M273.89,47.86l.17-4.41c.18-4.25.28-7.6.28-10.06,0-1.45,0-3-.07-4.61s-.11-3.37-.19-5.24l-.14-3.17h2c.73,0,1.63,0,2.69-.06l1.55,0,1.94,0c3.1,0,5.42.51,7,1.51a5,5,0,0,1,2.32,4.51,6.39,6.39,0,0,1-1.33,4,7.84,7.84,0,0,1-3.43,2.55v.12a8.59,8.59,0,0,1,5,2,5.51,5.51,0,0,1,1.89,4.33,7.18,7.18,0,0,1-3.66,6.46A18.21,18.21,0,0,1,280.2,48C279.42,48,277.31,47.94,273.89,47.86ZM276,21.93a19.89,19.89,0,0,1,.12,2.85c0,1.65,0,4.11,0,7.4.65,0,2,0,3.94,0l1,0a14.39,14.39,0,0,0,5.66-1.09c1.73-.72,2.64-2.2,2.75-4.42A4.16,4.16,0,0,0,287.63,23c-1.22-.82-3.13-1.22-5.72-1.22-1.57,0-2.92,0-4.07.06Zm.14,11.92,0,6.24q0,4,.14,6.12a19.57,19.57,0,0,0,3.68.25,18.39,18.39,0,0,0,8.51-1.66,5.33,5.33,0,0,0,3.16-5A5.06,5.06,0,0,0,289,35.28c-1.72-1.06-4.51-1.6-8.35-1.6-1.22,0-2.13,0-2.72,0S276.7,33.78,276.09,33.85Z"/><path class="cls-4" d="M300.22,45.19q-2.75-3-2.75-9.65,0-7.16-.37-15.17h2.44l-.05,1.82q-.19,7.86-.19,9.68,0,6.51.95,9.36a7.49,7.49,0,0,0,3,4.16,11.23,11.23,0,0,0,6,1.31c3.8,0,6.46-1.17,8-3.49s2.31-6.13,2.31-11.38c0-1.09,0-2.91-.13-5.47s-.16-4.55-.24-6h2.34c-.06,1.52-.12,3.78-.16,6.78s-.07,5.48-.07,7.44q0,6.69-3.16,10.17t-8.94,3.48C305,48.24,302,47.22,300.22,45.19Z"/><path class="cls-4" d="M328,28.79a6.26,6.26,0,0,0,2,1.84,18.59,18.59,0,0,0,4.06,1.82,45.14,45.14,0,0,1,4.57,1.79,11.55,11.55,0,0,1,3.06,2,6.22,6.22,0,0,1,1.53,2.21,7.29,7.29,0,0,1,.45,2.65,6.19,6.19,0,0,1-2.84,5.55q-2.83,1.86-8.25,1.86a29.25,29.25,0,0,1-7.34-.82l.47-2a21.54,21.54,0,0,0,3.74.94,24.37,24.37,0,0,0,3.72.27c2.93,0,5.1-.44,6.49-1.31a4.69,4.69,0,0,0,2.08-4.31,5,5,0,0,0-1.61-3.85q-1.62-1.5-6.28-3a18.54,18.54,0,0,1-6.5-3.21,5.54,5.54,0,0,1-1.82-4.25,5.93,5.93,0,0,1,2.59-5,10.39,10.39,0,0,1,6.34-1.9,29.89,29.89,0,0,1,7.14.74l-.46,1.77c-1.46-.31-2.69-.53-3.7-.66a22.66,22.66,0,0,0-3.13-.2A8.31,8.31,0,0,0,329.27,23a4,4,0,0,0-1.79,3.36A4.68,4.68,0,0,0,328,28.79Z"/><path class="cls-4" d="M347.83,47.86q.39-9.39.39-14.47,0-5.89-.39-13h2.46q-.27,5-.26,13c0,4.72.08,9.55.26,14.52Z"/><path class="cls-4" d="M361.3,23.2q9.48,12.16,12.5,16.49c2,2.89,3.07,4.45,3.16,4.71h.09q-.23-4.71-.23-9.28V29.4q0-5.74-.14-9h2.06q-.28,4.83-.28,13.84,0,4.07.05,7.2t.23,6.45h-1.33s-1.1-1.47-3.19-4.41-4-5.49-5.6-7.64l-5.37-7-1.76-2.32-1.78-2.35a11.58,11.58,0,0,1-.84-1.22h-.1q.19,5,.19,9.11c0,1.28,0,3.1,0,5.47l0,4.76c0,2.3,0,4.17.12,5.64H357q.39-8.14.39-14.47t-.39-13h2.2a11,11,0,0,0,.87,1.16Z"/><path class="cls-4" d="M385.36,47.86l.16-4.41q.28-6.37.28-10.06c0-2.56-.07-5.33-.21-8.29s-.22-4.55-.23-4.73H402l-.09,1.73q-5.17-.17-14.41-.17c.06,3.12.09,6.7.09,10.72q7.37,0,11.53-.26v1.9q-5.58-.21-11.53-.21v4.66q0,4.55.12,7.6,8.64,0,15.77-.34l-.09,1.86Z"/><path class="cls-4" d="M406.56,28.79a6.26,6.26,0,0,0,2,1.84,18.59,18.59,0,0,0,4.06,1.82,44.22,44.22,0,0,1,4.57,1.79,11.55,11.55,0,0,1,3.06,2,6.22,6.22,0,0,1,1.53,2.21,7.29,7.29,0,0,1,.45,2.65,6.19,6.19,0,0,1-2.84,5.55q-2.83,1.86-8.25,1.86a29.25,29.25,0,0,1-7.34-.82l.47-2a21.54,21.54,0,0,0,3.74.94,24.37,24.37,0,0,0,3.72.27c2.93,0,5.1-.44,6.49-1.31a4.69,4.69,0,0,0,2.08-4.31,5,5,0,0,0-1.61-3.85q-1.62-1.5-6.28-3a18.54,18.54,0,0,1-6.5-3.21,5.54,5.54,0,0,1-1.82-4.25,5.93,5.93,0,0,1,2.59-5A10.39,10.39,0,0,1,413,20a29.89,29.89,0,0,1,7.14.74l-.46,1.77c-1.46-.31-2.69-.53-3.7-.66a22.62,22.62,0,0,0-3.12-.2A8.32,8.32,0,0,0,407.8,23,4,4,0,0,0,406,26.34,4.68,4.68,0,0,0,406.56,28.79Z"/><path class="cls-4" d="M426.67,28.79a6.32,6.32,0,0,0,2,1.84,18.48,18.48,0,0,0,4.05,1.82,43.34,43.34,0,0,1,4.57,1.79,11.55,11.55,0,0,1,3.06,2,6,6,0,0,1,1.53,2.21,7.29,7.29,0,0,1,.45,2.65,6.19,6.19,0,0,1-2.84,5.55q-2.83,1.86-8.25,1.86a29.17,29.17,0,0,1-7.33-.82l.47-2a21.32,21.32,0,0,0,3.74.94,24.24,24.24,0,0,0,3.71.27q4.41,0,6.49-1.31a4.7,4.7,0,0,0,2.09-4.31,5,5,0,0,0-1.62-3.85q-1.62-1.5-6.28-3A18.47,18.47,0,0,1,426,31.16a5.51,5.51,0,0,1-1.83-4.25,5.93,5.93,0,0,1,2.59-5,10.41,10.41,0,0,1,6.34-1.9,30,30,0,0,1,7.15.74l-.47,1.77q-2.18-.46-3.69-.66a22.76,22.76,0,0,0-3.13-.2A8.32,8.32,0,0,0,427.91,23a4,4,0,0,0-1.79,3.36A4.68,4.68,0,0,0,426.67,28.79Z"/></g><g class="cls-5"><path class="cls-4" d="M113,43.66a46.46,46.46,0,0,1-11.72,31.63q-10.35,12-29.08,12.58Q68.6,88,52.42,88q-3,0-9.15-.19t-9.15-.18c-1.2,0-1.8-.48-1.8-1.43q0-6.83.53-20.49t.53-20.5q0-7.12-.53-21.36t-.53-21.3c0-.87.6-1.39,1.8-1.55Q38.53.51,48.57.5q19.09,0,24.74.56Q88,2.55,96.32,8.5a37.7,37.7,0,0,1,12.34,15.63A46.49,46.49,0,0,1,113,43.66Zm-23.75,0q0-10.48-6.26-17.12-6.33-6.87-16.74-6.88-9.55,0-9.55,2.54c0,2.44-.05,6.11-.13,11s-.12,8.57-.12,11,0,6,.12,10.82.13,8.44.13,10.88q0,2.67,9.92,2.67,10.72,0,16.87-7.13Q89.25,54.7,89.25,43.66Z"/></g><path class="cls-2" d="M26.56,25.59c-4.24,0-4.73-.49-4.73-4.73V13a7.76,7.76,0,0,1,7.75-7.75h4.84A7.76,7.76,0,0,1,42.17,13v4.84a7.76,7.76,0,0,1-7.75,7.75Z"/><path class="cls-2" d="M34.42,5.75A7.28,7.28,0,0,1,41.67,13v4.84a7.28,7.28,0,0,1-7.25,7.25H26.56c-4,0-4.23-.25-4.23-4.23V13a7.28,7.28,0,0,1,7.25-7.25h4.84m0-1H29.58A8.26,8.26,0,0,0,21.33,13v7.86c0,4.54.69,5.23,5.23,5.23h7.86a8.26,8.26,0,0,0,8.25-8.25V13a8.26,8.26,0,0,0-8.25-8.25Z"/><path class="cls-2" d="M15.24,50.92c-2.55,0-2.91-.35-2.91-2.91V43.54A4.63,4.63,0,0,1,17,38.92h2.75a4.62,4.62,0,0,1,4.62,4.62v2.75a4.63,4.63,0,0,1-4.62,4.63Z"/><path class="cls-2" d="M19.71,39.42a4.13,4.13,0,0,1,4.12,4.12v2.75a4.14,4.14,0,0,1-4.12,4.13H15.24c-2.27,0-2.41-.14-2.41-2.41V43.54A4.14,4.14,0,0,1,17,39.42h2.75m0-1H17a5.13,5.13,0,0,0-5.13,5.12V48c0,2.84.58,3.41,3.41,3.41h4.47a5.13,5.13,0,0,0,5.12-5.13V43.54a5.13,5.13,0,0,0-5.12-5.12Z"/><path class="cls-2" d="M21.08,81.5c-3.7,0-4.13-.42-4.13-4.12V70.64a6.73,6.73,0,0,1,6.72-6.72h4.15a6.73,6.73,0,0,1,6.72,6.72v4.14a6.73,6.73,0,0,1-6.72,6.72Z"/><path class="cls-2" d="M27.82,64.42A6.24,6.24,0,0,1,34,70.64v4.14A6.24,6.24,0,0,1,27.82,81H21.08c-3.42,0-3.62-.2-3.62-3.62V70.64a6.23,6.23,0,0,1,6.21-6.22h4.15m0-1H23.67a7.22,7.22,0,0,0-7.21,7.22v6.74c0,4,.64,4.62,4.62,4.62h6.74A7.23,7.23,0,0,0,35,74.78V70.64a7.23,7.23,0,0,0-7.22-7.22Z"/><path class="cls-2" d="M11.3,21.09c-1.34,0-1.63-.29-1.63-1.63v-2.1a2.43,2.43,0,0,1,2.43-2.44h1.3a2.43,2.43,0,0,1,2.43,2.44v1.29a2.44,2.44,0,0,1-2.43,2.44Z"/><path class="cls-2" d="M13.4,15.42a1.94,1.94,0,0,1,1.93,1.94v1.29a2,2,0,0,1-1.93,1.94H11.3c-1.07,0-1.13-.07-1.13-1.13v-2.1a1.94,1.94,0,0,1,1.93-1.94h1.3m0-1H12.1a2.94,2.94,0,0,0-2.93,2.94v2.1c0,1.61.51,2.13,2.13,2.13h2.1a2.94,2.94,0,0,0,2.93-2.94V17.36a2.94,2.94,0,0,0-2.93-2.94Z"/><path class="cls-2" d="M3.41,35.59C.85,35.59.5,35.23.5,32.68V28.21a4.62,4.62,0,0,1,4.62-4.62H7.87a4.62,4.62,0,0,1,4.63,4.62V31a4.63,4.63,0,0,1-4.63,4.63Z"/><path class="cls-2" d="M7.88,24.09A4.13,4.13,0,0,1,12,28.21V31a4.14,4.14,0,0,1-4.12,4.13H3.41C1.14,35.09,1,35,1,32.68V28.21a4.14,4.14,0,0,1,4.13-4.12H7.88m0-1H5.13A5.13,5.13,0,0,0,0,28.21v4.47c0,2.83.57,3.41,3.41,3.41H7.88A5.13,5.13,0,0,0,13,31V28.21a5.13,5.13,0,0,0-5.12-5.12Z"/><path class="cls-2" d="M30,59.59c-3.69,0-4.11-.43-4.11-4.11V48.77a6.69,6.69,0,0,1,6.69-6.68h4.12a6.69,6.69,0,0,1,6.69,6.68V52.9a6.7,6.7,0,0,1-6.69,6.69Z"/><path class="cls-2" d="M36.68,42.59a6.2,6.2,0,0,1,6.19,6.18V52.9a6.21,6.21,0,0,1-6.19,6.19H30c-3.4,0-3.61-.21-3.61-3.61V48.77a6.21,6.21,0,0,1,6.19-6.18h4.12m0-1H32.56a7.2,7.2,0,0,0-7.19,7.18v6.71c0,4,.65,4.61,4.61,4.61h6.7a7.2,7.2,0,0,0,7.19-7.19V48.77a7.19,7.19,0,0,0-7.19-7.18Z"/><path class="cls-2" d="M30,36.92c-1.75,0-2.06-.31-2.06-2.07V31.94a3.19,3.19,0,0,1,3.18-3.19h1.8a3.19,3.19,0,0,1,3.18,3.19v1.79a3.19,3.19,0,0,1-3.18,3.19Z"/><path class="cls-2" d="M32.9,29.25a2.7,2.7,0,0,1,2.68,2.69v1.79a2.7,2.7,0,0,1-2.68,2.69H30c-1.47,0-1.56-.09-1.56-1.57V31.94a2.7,2.7,0,0,1,2.68-2.69h1.8m0-1H31.1a3.69,3.69,0,0,0-3.68,3.69v2.91c0,2,.52,2.57,2.56,2.57H32.9a3.69,3.69,0,0,0,3.68-3.69V31.94a3.69,3.69,0,0,0-3.68-3.69Z"/><path class="cls-2" d="M19.6,33.09c-1,0-1.27-.28-1.27-1.27V30.4a1.82,1.82,0,0,1,1.82-1.81H21a1.81,1.81,0,0,1,1.81,1.81v.87A1.82,1.82,0,0,1,21,33.09Z"/><path class="cls-2" d="M21,29.09a1.31,1.31,0,0,1,1.31,1.31v.87A1.32,1.32,0,0,1,21,32.59H19.6c-.72,0-.77-.05-.77-.77V30.4a1.32,1.32,0,0,1,1.32-1.31H21m0-1h-.87a2.31,2.31,0,0,0-2.32,2.31v1.42c0,1.27.5,1.77,1.77,1.77H21a2.31,2.31,0,0,0,2.31-2.32V30.4A2.3,2.3,0,0,0,21,28.09Z"/><path class="cls-2" d="M7.7,62.17c-1.57,0-1.87-.3-1.87-1.87V57.76a2.85,2.85,0,0,1,2.85-2.84h1.56a2.84,2.84,0,0,1,2.84,2.84v1.57a2.84,2.84,0,0,1-2.84,2.84Z"/><path class="cls-2" d="M10.24,55.42a2.34,2.34,0,0,1,2.34,2.34v1.57a2.34,2.34,0,0,1-2.34,2.34H7.7c-1.29,0-1.37-.08-1.37-1.37V57.76a2.35,2.35,0,0,1,2.35-2.34h1.56m0-1H8.68a3.35,3.35,0,0,0-3.35,3.34V60.3c0,1.84.53,2.37,2.37,2.37h2.54a3.35,3.35,0,0,0,3.34-3.34V57.76a3.35,3.35,0,0,0-3.34-3.34Z"/><path class="cls-2" d="M11.6,71.09c-1,0-1.27-.28-1.27-1.27V68.4a1.82,1.82,0,0,1,1.82-1.81H13a1.81,1.81,0,0,1,1.81,1.81v.87A1.82,1.82,0,0,1,13,71.09Z"/><path class="cls-2" d="M13,67.09a1.31,1.31,0,0,1,1.31,1.31v.87A1.32,1.32,0,0,1,13,70.59H11.6c-.72,0-.77,0-.77-.77V68.4a1.32,1.32,0,0,1,1.32-1.31H13m0-1h-.87A2.31,2.31,0,0,0,9.83,68.4v1.42c0,1.27.5,1.77,1.77,1.77H13a2.31,2.31,0,0,0,2.31-2.32V68.4A2.3,2.3,0,0,0,13,66.09Z"/><line class="cls-6" x1="124.73" y1="0.19" x2="124.73" y2="87.63"/><line class="cls-7" x1="442.56" y1="55.7" x2="274.06" y2="55.7"/><text class="cls-8" transform="translate(273.06 76.36) scale(1 0.9)">YOUR DIGI<tspan class="cls-9" x="74.38" y="0">T</tspan><tspan x="81.98" y="0">AL </tspan><tspan class="cls-9" x="102.91" y="0">P</tspan><tspan x="111.56" y="0">ARTNER</tspan></text></g></g></svg>