<?xml version="1.0" encoding="utf-8"?>
<!-- Generator: Adobe Illustrator 19.0.0, SVG Export Plug-In . SVG Version: 6.00 Build 0)  -->
<svg version="1.1" id="Livello_1" xmlns="http://www.w3.org/2000/svg" xmlns:xlink="http://www.w3.org/1999/xlink" x="0px" y="0px"
	 viewBox="0 0 113 113" style="enable-background:new 0 0 113 113;" xml:space="preserve">
<style type="text/css">
	.st0{filter:url(#Adobe_OpacityMaskFilter);}
	.st1{fill:#FFFFFF;}
	.st2{mask:url(#XMLID_2_);}
	.st3{fill:#0079BA;}
	.st4{fill:#6D6E70;}
</style>
<g id="XMLID_41_">
	<defs>
		<filter id="Adobe_OpacityMaskFilter" filterUnits="userSpaceOnUse" x="31.3" y="12.9" width="80.7" height="87.5">
			
				<feColorMatrix  type="matrix" values="-1 0 0 0 1  0 -1 0 0 1  0 0 -1 0 1  0 0 0 1 0" color-interpolation-filters="sRGB" result="source"/>
			<feFlood  style="flood-color:white;flood-opacity:1" result="back"/>
			<feBlend  in="source" in2="back" mode="normal"/>
		</filter>
	</defs>
	<mask maskUnits="userSpaceOnUse" x="31.3" y="12.9" width="80.7" height="87.5" id="XMLID_2_">
		<g id="XMLID_107_" class="st0">
			<g id="XMLID_108_">
				<g id="XMLID_134_">
					<path id="XMLID_76_" class="st1" d="M33.4,18.1c4,0,7.3,3.3,7.3,7.3v4.8c0,4-3.3,7.3-7.3,7.3h-7.9c-4,0-4.2-0.2-4.2-4.2v-7.9
						c0-4,3.3-7.3,7.3-7.3H33.4 M33.4,15.1h-4.8c-5.7,0-10.3,4.6-10.3,10.3v7.9c0,5.7,1.6,7.2,7.2,7.2h7.9c5.7,0,10.3-4.6,10.3-10.3
						v-4.8C43.7,19.7,39.1,15.1,33.4,15.1L33.4,15.1z"/>
				</g>
				<g id="XMLID_133_">
					<path id="XMLID_72_" class="st1" d="M18.7,51.8c2.3,0,4.1,1.9,4.1,4.1v2.8c0,2.3-1.9,4.1-4.1,4.1h-4.5c-2.3,0-2.4-0.1-2.4-2.4
						v-4.5c0-2.3,1.9-4.1,4.1-4.1H18.7 M18.7,48.8H16c-3.9,0-7.1,3.2-7.1,7.1v4.5c0,3.9,1.5,5.4,5.4,5.4h4.5c3.9,0,7.1-3.2,7.1-7.1
						v-2.8C25.8,52,22.6,48.8,18.7,48.8L18.7,48.8z"/>
				</g>
				<g id="XMLID_128_">
					<path id="XMLID_68_" class="st1" d="M26.8,76.8c3.4,0,6.2,2.8,6.2,6.2v4.1c0,3.4-2.8,6.2-6.2,6.2h-6.7c-3.4,0-3.6-0.2-3.6-3.6
						V83c0-3.4,2.8-6.2,6.2-6.2H26.8 M26.8,73.8h-4.1c-5.1,0-9.2,4.1-9.2,9.2v6.7c0,5.1,1.5,6.6,6.6,6.6h6.7c5.1,0,9.2-4.1,9.2-9.2
						V83C36,77.9,31.9,73.8,26.8,73.8L26.8,73.8z"/>
				</g>
				<g id="XMLID_127_">
					<path id="XMLID_64_" class="st1" d="M12.4,27.8c1.1,0,1.9,0.9,1.9,1.9V31c0,1.1-0.9,1.9-1.9,1.9h-2.1c-1.1,0-1.1-0.1-1.1-1.1
						v-2.1c0-1.1,0.9-1.9,1.9-1.9H12.4 M12.4,24.8h-1.3c-2.7,0-4.9,2.2-4.9,4.9v2.1c0,2.7,1.4,4.1,4.1,4.1h2.1
						c2.7,0,4.9-2.2,4.9-4.9v-1.3C17.3,27,15.1,24.8,12.4,24.8L12.4,24.8z"/>
				</g>
				<g id="XMLID_126_">
					<path id="XMLID_59_" class="st1" d="M6.9,36.4c2.3,0,4.1,1.9,4.1,4.1v2.8c0,2.3-1.9,4.1-4.1,4.1H2.4C0.1,47.4,0,47.3,0,45v-4.5
						c0-2.3,1.9-4.1,4.1-4.1H6.9 M6.9,33.4H4.1c-3.9,0-7.1,3.2-7.1,7.1V45c0,3.9,1.5,5.4,5.4,5.4h4.5c3.9,0,7.1-3.2,7.1-7.1v-2.8
						C14,36.6,10.8,33.4,6.9,33.4L6.9,33.4z"/>
				</g>
				<g id="XMLID_121_">
					<path id="XMLID_54_" class="st1" d="M35.7,54.9c3.4,0,6.2,2.8,6.2,6.2v4.1c0,3.4-2.8,6.2-6.2,6.2H29c-3.4,0-3.6-0.2-3.6-3.6
						v-6.7c0-3.4,2.8-6.2,6.2-6.2H35.7 M35.7,51.9h-4.1c-5.1,0-9.2,4.1-9.2,9.2v6.7c0,5.1,1.5,6.6,6.6,6.6h6.7
						c5.1,0,9.2-4.1,9.2-9.2v-4.1C44.9,56.1,40.7,51.9,35.7,51.9L35.7,51.9z"/>
				</g>
				<g id="XMLID_114_">
					<path id="XMLID_49_" class="st1" d="M31.9,41.6c1.5,0,2.7,1.2,2.7,2.7v1.8c0,1.5-1.2,2.7-2.7,2.7H29c-1.5,0-1.6-0.1-1.6-1.6
						v-2.9c0-1.5,1.2-2.7,2.7-2.7H31.9 M31.9,38.6h-1.8c-3.1,0-5.7,2.6-5.7,5.7v2.9c0,3.1,1.5,4.6,4.6,4.6h2.9
						c3.1,0,5.7-2.6,5.7-5.7v-1.8C37.6,41.2,35,38.6,31.9,38.6L31.9,38.6z"/>
				</g>
				<g id="XMLID_112_">
					<path id="XMLID_43_" class="st1" d="M20,41.4c0.7,0,1.3,0.6,1.3,1.3v0.9c0,0.7-0.6,1.3-1.3,1.3h-1.4c-0.7,0-0.8,0-0.8-0.8v-1.4
						c0-0.7,0.6-1.3,1.3-1.3H20 M20,38.4h-0.9c-2.4,0-4.3,1.9-4.3,4.3v1.4c0,2.4,1.4,3.8,3.8,3.8H20c2.4,0,4.3-1.9,4.3-4.3v-0.9
						C24.3,40.4,22.4,38.4,20,38.4L20,38.4z"/>
				</g>
				<g id="XMLID_111_">
					<path id="XMLID_37_" class="st1" d="M9.2,67.8c1.3,0,2.3,1.1,2.3,2.3v1.6c0,1.3-1.1,2.3-2.3,2.3H6.7c-1.3,0-1.4-0.1-1.4-1.4
						v-2.5c0-1.3,1.1-2.3,2.3-2.3H9.2 M9.2,64.8H7.7c-2.9,0-5.3,2.4-5.3,5.3v2.5c0,2.9,1.4,4.4,4.4,4.4h2.5c2.9,0,5.3-2.4,5.3-5.3
						v-1.6C14.6,67.2,12.2,64.8,9.2,64.8L9.2,64.8z"/>
				</g>
				<g id="XMLID_109_">
					<path id="XMLID_33_" class="st1" d="M12,79.4c0.7,0,1.3,0.6,1.3,1.3v0.9c0,0.7-0.6,1.3-1.3,1.3h-1.4c-0.7,0-0.8,0-0.8-0.8v-1.4
						c0-0.7,0.6-1.3,1.3-1.3H12 M12,76.4h-0.9c-2.4,0-4.3,1.9-4.3,4.3v1.4c0,2.4,1.4,3.8,3.8,3.8H12c2.4,0,4.3-1.9,4.3-4.3v-0.9
						C16.3,78.4,14.4,76.4,12,76.4L12,76.4z"/>
				</g>
			</g>
		</g>
	</mask>
	<g id="XMLID_56_" class="st2">
		<path id="XMLID_113_" class="st3" d="M112,56c0,12.2-3.9,22.7-11.7,31.6c-6.9,8-16.6,12.2-29.1,12.6c-2.4,0.1-9,0.1-19.8,0.1
			c-2,0-5.1-0.1-9.1-0.2c-4.1-0.1-7.1-0.2-9.1-0.2c-1.2,0-1.8-0.5-1.8-1.4c0-4.5,0.2-11.4,0.5-20.5c0.4-9.1,0.5-15.9,0.5-20.5
			c0-4.8-0.2-11.9-0.5-21.4c-0.4-9.5-0.5-16.6-0.5-21.3c0-0.9,0.6-1.4,1.8-1.6c2.9-0.3,7.8-0.5,14.4-0.5c12.7,0,21,0.2,24.7,0.6
			c9.8,1,17.5,3.5,23,7.4c5.2,3.7,9.3,8.9,12.3,15.6C110.6,42.8,112,49.3,112,56z M88.2,56c0-7-2.1-12.7-6.3-17.1
			c-4.2-4.6-9.8-6.9-16.7-6.9c-6.4,0-9.5,0.8-9.5,2.5c0,2.4,0,6.1-0.1,11c-0.1,4.9-0.1,8.6-0.1,11c0,2.4,0,6,0.1,10.8
			c0.1,4.8,0.1,8.4,0.1,10.9c0,1.8,3.3,2.7,9.9,2.7c7.2,0,12.8-2.4,16.9-7.1C86.3,69.3,88.2,63.4,88.2,56z"/>
	</g>
	<g id="XMLID_46_">
		<g id="XMLID_100_">
			<path id="XMLID_32_" class="st4" d="M33.4,37.4h-7.9c-4,0-4.2-0.2-4.2-4.2v-7.9c0-4,3.3-7.3,7.3-7.3h4.8c4,0,7.3,3.3,7.3,7.3v4.8
				C40.7,34.2,37.4,37.4,33.4,37.4z"/>
		</g>
		<g id="XMLID_99_">
			<path id="XMLID_30_" class="st4" d="M18.7,62.8h-4.5c-2.3,0-2.4-0.1-2.4-2.4v-4.5c0-2.3,1.9-4.1,4.1-4.1h2.8
				c2.3,0,4.1,1.9,4.1,4.1v2.8C22.8,60.9,21,62.8,18.7,62.8z"/>
		</g>
		<g id="XMLID_94_">
			<path id="XMLID_28_" class="st4" d="M26.8,93.4h-6.7c-3.4,0-3.6-0.2-3.6-3.6V83c0-3.4,2.8-6.2,6.2-6.2h4.1c3.4,0,6.2,2.8,6.2,6.2
				v4.1C33,90.6,30.2,93.4,26.8,93.4z"/>
		</g>
		<g id="XMLID_93_">
			<path id="XMLID_26_" class="st4" d="M12.4,32.9h-2.1c-1.1,0-1.1-0.1-1.1-1.1v-2.1c0-1.1,0.9-1.9,1.9-1.9h1.3
				c1.1,0,1.9,0.9,1.9,1.9V31C14.3,32.1,13.5,32.9,12.4,32.9z"/>
		</g>
		<g id="XMLID_88_">
			<path id="XMLID_24_" class="st4" d="M6.9,47.4H2.4C0.1,47.4,0,47.3,0,45v-4.5c0-2.3,1.9-4.1,4.1-4.1h2.8c2.3,0,4.1,1.9,4.1,4.1
				v2.8C11,45.6,9.1,47.4,6.9,47.4z"/>
		</g>
		<g id="XMLID_60_">
			<path id="XMLID_22_" class="st4" d="M35.7,71.4H29c-3.4,0-3.6-0.2-3.6-3.6v-6.7c0-3.4,2.8-6.2,6.2-6.2h4.1c3.4,0,6.2,2.8,6.2,6.2
				v4.1C41.9,68.7,39.1,71.4,35.7,71.4z"/>
		</g>
		<g id="XMLID_51_">
			<path id="XMLID_20_" class="st4" d="M31.9,48.8H29c-1.5,0-1.6-0.1-1.6-1.6v-2.9c0-1.5,1.2-2.7,2.7-2.7h1.8c1.5,0,2.7,1.2,2.7,2.7
				v1.8C34.6,47.6,33.4,48.8,31.9,48.8z"/>
		</g>
		<g id="XMLID_47_">
			<path id="XMLID_18_" class="st4" d="M20,44.9h-1.4c-0.7,0-0.8,0-0.8-0.8v-1.4c0-0.7,0.6-1.3,1.3-1.3H20c0.7,0,1.3,0.6,1.3,1.3
				v0.9C21.3,44.3,20.7,44.9,20,44.9z"/>
		</g>
		<g id="XMLID_42_">
			<path id="XMLID_16_" class="st4" d="M9.2,74H6.7c-1.3,0-1.4-0.1-1.4-1.4v-2.5c0-1.3,1.1-2.3,2.3-2.3h1.6c1.3,0,2.3,1.1,2.3,2.3
				v1.6C11.6,73,10.5,74,9.2,74z"/>
		</g>
		<g id="XMLID_102_">
			<path id="XMLID_14_" class="st4" d="M12,82.9h-1.4c-0.7,0-0.8,0-0.8-0.8v-1.4c0-0.7,0.6-1.3,1.3-1.3H12c0.7,0,1.3,0.6,1.3,1.3
				v0.9C13.3,82.3,12.7,82.9,12,82.9z"/>
		</g>
	</g>
</g>
</svg>
